PathFileType	4	(X/Y/Z)	Patient4_TMGait_0pt3_02_right_28.trc.trc
DataRate	CameraRate	NumFrames	NumMarkers	Units	OrigDataRate	OrigDataStartFrame	OrigNumFrames
53.030303030303	53.030303030303	4	33	mm	53.030303030303	89	       141
Frame#	Time	Sacral			L.Shoulder			Chest			R.Shoulder			Neck			R.ASIS			L.ASIS			R.Thigh.Superior			R.Thigh.Lateral			R.Thigh.Inferior			R.Patella			L.Thigh.Superior			L.Thigh.Lateral			L.Thigh.Inferior			L.Patella			L.Shank.Superior			L.Shank.Lateral			L.Shank.Inferior			R.Shank.Superior			R.Shank.Lateral			R.Shank.Inferior			R.Heel			R.Midfoot.Superior			R.Midfoot.Lateral			R.Toe			L.Heel			L.Midfoot.Lateral			L.Midfoot.Superior			L.Toe			L.Elbow			L.Wrist			R.Elbow			R.Wrist			
		X1	Y1	Z1	X2	Y2	Z2	X3	Y3	Z3	X4	Y4	Z4	X5	Y5	Z5	X6	Y6	Z6	X7	Y7	Z7	X8	Y8	Z8	X9	Y9	Z9	X10	Y10	Z10	X11	Y11	Z11	X12	Y12	Z12	X13	Y13	Z13	X14	Y14	Z14	X15	Y15	Z15	X16	Y16	Z16	X17	Y17	Z17	X18	Y18	Z18	X19	Y19	Z19	X20	Y20	Z20	X21	Y21	Z21	X22	Y22	Z22	X23	Y23	Z23	X24	Y24	Z24	X25	Y25	Z25	X26	Y26	Z26	X27	Y27	Z27	X28	Y28	Z28	X29	Y29	Z29	X30	Y30	Z30	X31	Y31	Z31	X32	Y32	Z32	X33	Y33	Z33	

89	55.559428571429	775.759357640199	1011.482535181784	479.606918114184	943.182390468602	1422.722844469397	263.994378837428	1068.586890948975	1352.749919626745	408.277023339190	1019.886258240164	1436.836324753331	589.544050058525	949.539196010854	1489.779028808879	419.789729095410	1011.679511348217	931.513411022034	569.462186537293	969.448366727707	954.389665309595	299.430269548947	1007.428563505413	719.965504729801	547.337358665015	908.831343638812	625.588271982062	615.993467042236	968.460507256511	557.882989286280	535.318357421159	947.528788990770	462.270839402758	548.560628474019	1041.116859724920	761.709686852969	341.650200020103	973.598762978529	632.299340569804	279.436338370540	1069.949271871474	568.661885271126	343.842240601189	1080.944083183450	495.252548151601	350.574417926337	1052.897369675355	421.273949046603	343.906853615766	965.383167688252	306.701130499071	291.218418939391	1014.149919945152	194.904704944528	360.866122358029	884.856272840430	389.813119555898	558.594986201411	781.938929459757	321.742533541482	627.317421780635	784.282775009204	215.761674997961	568.204405888919	598.044007775443	93.313654480585	550.320439593339	779.258722904058	103.499230276109	577.048763239081	680.886216195168	61.213881155413	617.743312344376	882.563672726824	36.359115442744	594.055506788093	882.681464380865	40.363563277076	395.974643742617	959.792239548448	37.375639463232	318.828046583412	1043.426487114177	97.167700878659	349.121118136975	1171.459760416276	41.258841154851	324.383559192632	840.843667985831	1081.076487882013	170.050361468177	858.115548150381	820.407398864833	167.403804390555	1167.236107299305	1126.642757945059	700.828897799892	1407.323668395367	1152.260232675641	620.891806431560	
90	55.578285714286	776.244430205695	1011.461687301848	473.961740059264	945.473519411965	1423.049861073688	259.963451959812	1069.340365390703	1353.108904853702	405.533137447267	1018.763015913695	1437.177844288872	586.327416053367	950.121858577550	1490.139801793413	415.894968891315	1011.427994114208	931.953504132822	565.847245844999	971.425189360877	954.515952163158	295.467677895323	1009.803849464466	720.653703070597	544.271319747889	912.338684909599	625.523742676721	612.926655438366	973.519050244451	557.838868196808	532.949319276312	953.263710800894	460.907653004960	547.541181265433	1041.870696320133	760.757819990797	337.424149261032	973.137374784256	631.694635222036	276.321644818598	1069.008498543835	567.599134586950	340.862243310810	1079.399668853661	494.150432493828	348.090803901900	1050.646443236550	420.186261928134	341.912282622945	962.144193200950	306.125253544298	289.737385866827	1009.632596189315	194.342422296917	360.153239589760	888.605448389159	389.658654075175	557.563145237615	783.606293648269	324.594392377253	625.948697621693	784.225777955166	217.872815209125	568.089704218161	595.355809722063	100.242308028367	550.602532501313	776.523143294210	104.382262144265	577.250352756968	676.987857764051	65.245827183961	617.889262436185	877.058998095531	35.969531886528	593.895245225474	876.997661315595	40.350526917048	395.906272340805	954.100404858612	37.283848456545	318.735904714727	1037.778351533516	97.037015454708	348.996212799154	1165.819094015112	41.015560858516	324.316149679242	849.749325704459	1079.910682335322	162.661741672553	872.271415051953	819.728147101711	159.240379005082	1159.044547292550	1123.049156990787	699.419023235659	1402.107295904780	1131.081857760358	623.174876126261	
91	55.597142857143	776.542007578761	1011.340357345508	468.383289111246	947.612245536754	1423.352675229374	256.043458725859	1069.864602020208	1353.460684531183	402.940258772878	1017.317942187681	1437.478796240055	583.227144547418	950.469902753880	1490.471660952464	412.059658301558	1011.015569953053	932.386894930635	562.326759721405	973.248954351758	954.650592051401	291.610587539592	1012.726086847334	721.479852765055	541.139457804076	916.796545084303	625.318366913795	609.805806235738	979.695703792255	557.874424137395	530.433607810573	960.247889811296	459.522312582185	546.387261029408	1042.460776460020	759.738905391653	333.195309982867	972.487042402495	631.087186020109	273.228557744721	1067.830001044785	566.509784392306	337.923415315865	1077.592090840675	493.053718347891	345.649426050327	1048.188239275799	419.119365322106	339.931612597571	958.779243795657	305.540048828556	288.221925327409	1005.014266521339	193.792691878995	359.431842048344	893.530760338317	389.500528892041	556.404080262598	786.406572286209	327.794947887649	624.464416691372	785.002005029706	220.381324564502	567.888836900635	593.403133970360	108.444496412468	550.820093965899	774.248028199207	105.658702158075	577.406040891315	673.515435164343	70.258778849362	617.992740631042	871.537834559591	35.424847145892	593.725093806872	871.307632569198	40.331144689624	395.816012161520	948.407812482935	37.188498708791	318.625976222633	1032.116367630300	96.914753741994	348.850958209912	1160.175390060339	40.815994191341	324.249642700709	859.257188030722	1078.718054884109	155.402468810822	887.510120065429	819.168412408691	151.465669326214	1149.735106306619	1119.274794347515	698.196848773708	1394.420639705636	1108.518306571707	626.022761162649	
92	55.616000000000	776.629972560970	1011.090516972457	462.901914494133	949.567264994154	1423.613136153899	252.273001275890	1070.138376023401	1353.779069700880	400.524360968055	1015.537475514294	1437.690334731369	580.277126575964	950.559187868971	1490.745875848570	408.329173501245	1010.447854604062	932.786113027132	558.915842234257	974.896967486330	954.771354553815	287.878220349049	1016.172795108478	722.458887250825	537.934764769737	922.186328325161	625.006700028421	606.641256215004	986.936622516556	558.032866324060	527.760247763006	968.428684305996	458.186300746789	545.050738856283	1042.905766254345	758.666714712735	329.028597051174	971.724119415400	630.459635414321	270.189410140017	1066.508024026136	565.400084282888	335.066812677228	1075.638357629966	491.953430073468	343.282553065622	1045.617141291198	418.057594994834	337.997746872011	955.357805214429	304.950826063605	286.701362002742	1000.337936075872	193.247632593733	358.717815558996	899.608332043476	389.384307510306	555.080961990012	790.353329804012	331.382480105990	622.840964694467	786.628689112901	223.353192648018	567.567202590233	592.283748288892	117.997947538579	550.910642119116	772.481780063693	107.476329574933	577.520690348146	670.540901265831	76.377139235100	618.014919077249	866.028838994126	34.726171104816	593.574009280103	865.615958887455	40.310890581272	395.707372604160	942.717687096661	37.095222586787	318.503420957595	1026.445710268049	96.803642730064	348.692432411487	1154.531024045380	40.655205537856	324.182640977347	869.346424233388	1077.528424977717	148.344566803084	903.858767367343	818.791956606939	144.156287580519	1139.342064477028	1115.339116239875	697.092100697147	1384.068544680801	1084.730187024106	629.408978625094	
